<svg width="24" height="24" viewBox="0 0 24 24" fill="none" xmlns="http://www.w3.org/2000/svg">
<g id="ph:cat">
<path id="Vector" d="M9 13.125C9 13.3475 8.93402 13.565 8.8104 13.75C8.68679 13.935 8.51109 14.0792 8.30552 14.1643C8.09995 14.2495 7.87375 14.2718 7.65552 14.2284C7.43729 14.185 7.23684 14.0778 7.0795 13.9205C6.92217 13.7631 6.81502 13.5627 6.77162 13.3445C6.72821 13.1262 6.75049 12.9 6.83564 12.6945C6.92078 12.4889 7.06498 12.3132 7.24998 12.1896C7.43499 12.066 7.6525 12 7.875 12C8.17337 12 8.45952 12.1185 8.6705 12.3295C8.88147 12.5405 9 12.8266 9 13.125ZM16.125 12C15.9025 12 15.685 12.066 15.5 12.1896C15.315 12.3132 15.1708 12.4889 15.0856 12.6945C15.0005 12.9 14.9782 13.1262 15.0216 13.3445C15.065 13.5627 15.1722 13.7631 15.3295 13.9205C15.4868 14.0778 15.6873 14.185 15.9055 14.2284C16.1238 14.2718 16.35 14.2495 16.5555 14.1643C16.7611 14.0792 16.9368 13.935 17.0604 13.75C17.184 13.565 17.25 13.3475 17.25 13.125C17.25 12.8266 17.1315 12.5405 16.9205 12.3295C16.7095 12.1185 16.4234 12 16.125 12ZM21.75 4.49998V12.75C21.75 17.7122 17.3766 21.75 12 21.75C6.62344 21.75 2.25 17.7122 2.25 12.75V4.49998C2.25014 4.20341 2.33819 3.91353 2.50302 3.66699C2.66785 3.42044 2.90207 3.22829 3.17607 3.11481C3.45007 3.00134 3.75156 2.97164 4.04244 3.02946C4.33332 3.08728 4.60054 3.23003 4.81031 3.43966C4.82344 3.45279 4.83469 3.46498 4.84594 3.4781L6.46875 5.34373C8.12807 4.30412 10.0466 3.75275 12.0047 3.75275C13.9628 3.75275 15.8813 4.30412 17.5406 5.34373L19.1541 3.4781C19.1653 3.46498 19.1766 3.45279 19.1897 3.43966C19.3995 3.23003 19.6667 3.08728 19.9576 3.02946C20.2484 2.97164 20.5499 3.00134 20.8239 3.11481C21.0979 3.22829 21.3322 3.42044 21.497 3.66699C21.6618 3.91353 21.7499 4.20341 21.75 4.49998ZM20.25 4.49998L18.2288 6.82498C18.1051 6.96802 17.932 7.05908 17.7441 7.07994C17.5562 7.1008 17.3673 7.04992 17.2153 6.93748C16.7578 6.59913 16.2668 6.30855 15.75 6.07029V8.24998C15.75 8.44889 15.671 8.63965 15.5303 8.78031C15.3897 8.92096 15.1989 8.99998 15 8.99998C14.8011 8.99998 14.6103 8.92096 14.4697 8.78031C14.329 8.63965 14.25 8.44889 14.25 8.24998V5.53591C13.758 5.40935 13.2562 5.32405 12.75 5.28091V8.24998C12.75 8.44889 12.671 8.63965 12.5303 8.78031C12.3897 8.92096 12.1989 8.99998 12 8.99998C11.8011 8.99998 11.6103 8.92096 11.4697 8.78031C11.329 8.63965 11.25 8.44889 11.25 8.24998V5.28091C10.7438 5.32405 10.242 5.40935 9.75 5.53591V8.24998C9.75 8.44889 9.67098 8.63965 9.53033 8.78031C9.38968 8.92096 9.19891 8.99998 9 8.99998C8.80109 8.99998 8.61032 8.92096 8.46967 8.78031C8.32902 8.63965 8.25 8.44889 8.25 8.24998V6.07029C7.73323 6.30855 7.24223 6.59913 6.78469 6.93748C6.63302 7.05025 6.44437 7.1016 6.25647 7.08127C6.06857 7.06093 5.89528 6.9704 5.77125 6.82779L3.75 4.49998V12.75C3.75 16.6556 7.05094 19.875 11.25 20.219V18.3103L9.96937 17.0297C9.89975 16.96 9.84454 16.8773 9.80688 16.7862C9.76923 16.6952 9.74987 16.5977 9.74991 16.4992C9.74996 16.4007 9.7694 16.3031 9.80714 16.2122C9.84487 16.1212 9.90016 16.0385 9.96984 15.9689C10.1106 15.8283 10.3014 15.7493 10.5003 15.7494C10.5988 15.7495 10.6964 15.7689 10.7874 15.8066C10.8783 15.8444 10.961 15.8997 11.0306 15.9694L12 16.9387L12.9694 15.9694C13.039 15.8997 13.1217 15.8444 13.2126 15.8066C13.3036 15.7689 13.4012 15.7495 13.4997 15.7494C13.5982 15.7494 13.6957 15.7687 13.7867 15.8064C13.8778 15.844 13.9605 15.8993 14.0302 15.9689C14.0998 16.0385 14.1551 16.1212 14.1929 16.2122C14.2306 16.3031 14.25 16.4007 14.2501 16.4992C14.2501 16.5977 14.2308 16.6952 14.1931 16.7862C14.1555 16.8773 14.1002 16.96 14.0306 17.0297L12.75 18.3103V20.219C16.9491 19.8731 20.25 16.6565 20.25 12.75V4.49998Z" fill="white"/>
</g>
</svg>
